{"title":"Laila Majnu 1976 DVDRip 480p H264 AAC - HIS_BOLLY","uid":5883970,"size":942507626,"categoryP":"video","categoryS":"movies","magnet":"?xt=urn:btih:9c2245aa305f16a92e50b337dbf56f5ce0784915&amp;dn=Laila+Majnu+1976+DVDRip+480p+H264+AAC+-+HIS_BOLLY&amp;tr=udp%3A%2F%2Ftracker.openbittorrent.com%3A80&amp;tr=udp%3A%2F%2Fopen.demonii.com%3A1337&amp;tr=udp%3A%2F%2Ftracker.coppersurfer.tk%3A6969&amp;tr=udp%3A%2F%2Fexodus.desync.com%3A6969","seeders":0,"leechers":1,"uploader":"his_bolly","files":-1,"time":1286998698,"description":"Synopsis:\nKaish Amari comes from a wealthy Islamic family. At the tender age of six he is sent to school and gets friendly with a young girl named Laila. Both of them become close friends, so much so that Kaish gets himself punished and beaten for her. They mature in age so does their love much to the chagrin of Laila's dad, who wants her to marry a wealthy Arabian, Bahksh, a noble Prince. Now the region is aflame with their love story, Kaish, who is now known as Majnu, cannot get Laila out of his mind and roams around the desert semi-senile, without food or drink, while Laila is getting wed to the man of her father's choice. The question remains will love triumph in the end or is this young couple fated to be separated for the rest of their lives.\n\nGeneral\nComplete name                    : Laila Majnu 1976 DVDRip 480p H264 AAC - HIS_BOLLY.mp4\nFormat                           : MPEG-4\nFormat profile                   : Base Media\nCodec ID                         : isom\nFile size                        : 896 MiB [1/5 DVD5]\nDuration                         : 2h 37mn\nOverall bit rate                 : 795 Kbps\n\nVideo\nID                               : 1\nFormat                           : AVC\nFormat/Info                      : Advanced Video Codec\nFormat profile                   : &lt;a class=&quot;__cf_email__&quot; href=&quot;/cdn-cgi/l/email-protection&quot; data-cfemail=&quot;551d3c323d1519617b65&quot;&gt;[email&amp;#160;protected]&lt;/a&gt;&lt;script cf-hash='f9e31' type=&quot;text/javascript&quot;&gt;\n/* &lt;![CDATA[ */!function(){try{var t=&quot;currentScript&quot;in document?document.currentScript:function(){for(var t=document.getElementsByTagName(&quot;script&quot;),e=t.length;e--;)if(t[e].getAttribute(&quot;cf-hash&quot;))return t[e]}();if(t&amp;&amp;t.previousSibling){var e,r,n,i,c=t.previousSibling,a=c.getAttribute(&quot;data-cfemail&quot;);if(a){for(e=&quot;&quot;,r=parseInt(a.substr(0,2),16),n=2;a.length-n;n+=2)i=parseInt(a.substr(n,2),16)^r,e+=String.fromCharCode(i);e=document.createTextNode(e),c.parentNode.replaceChild(e,c)}}}catch(u){}}();/* ]]&gt; */&lt;/script&gt;\nFormat settings, CABAC           : Yes\nFormat settings, ReFrames        : 4 frames\nCodec ID                         : avc1\nCodec ID/Info                    : Advanced Video Coding\nDuration                         : 2h 37mn\nBit rate mode                    : Variable\nBit rate                         : 664 Kbps\nMaximum bit rate                 : 2 293 Kbps\nWidth                            : 640 pixels\nHeight                           : 480 pixels\nDisplay aspect ratio             : 4:3\nFrame rate mode                  : Constant\nFrame rate                       : 23.976 fps\nResolution                       : 24 bits\nColorimetry                      : 4:2:0\nScan type                        : Progressive\nBits/(Pixel*Frame)               : 0.090\nStream size                      : 749 MiB (83%)\nWriting library                  : x264 core 98 r1649 c54c47d\n\nAudio\nID                               : 2\nFormat                           : AAC\nFormat/Info                      : Advanced Audio Codec\nFormat version                   : Version 4\nFormat profile                   : LC\nFormat settings, SBR             : Yes\nFormat settings, PS              : No\nCodec ID                         : 40\nDuration                         : 2h 37mn\nBit rate mode                    : Variable\nBit rate                         : 128 Kbps\nMaximum bit rate                 : 155 Kbps\nChannel(s)                       : 2 channels\nChannel positions                : L R\nSampling rate                    : 48.0 KHz\nResolution                       : 16 bits\nStream size                      : 144 MiB (16%)\nLanguage                         : Hindi","torrent":{"xt":"urn:btih:9c2245aa305f16a92e50b337dbf56f5ce0784915","amp;dn":"Laila+Majnu+1976+DVDRip+480p+H264+AAC+-+HIS_BOLLY","amp;tr":["udp%3A%2F%2Ftracker.openbittorrent.com%3A80","udp%3A%2F%2Fopen.demonii.com%3A1337","udp%3A%2F%2Ftracker.coppersurfer.tk%3A6969","udp%3A%2F%2Fexodus.desync.com%3A6969"],"infoHash":"9c2245aa305f16a92e50b337dbf56f5ce0784915","infoHashBuffer":{"type":"Buffer","data":[156,34,69,170,48,95,22,169,46,80,179,55,219,245,111,92,224,120,73,21]},"announce":[],"urlList":[]}}